<?xml version="1.0" encoding="UTF-8" standalone="no"?>
<!-- Created with Inkscape (http://www.inkscape.org/) -->

<svg
   width="170.96919mm"
   height="200.5565mm"
   viewBox="0 0 170.96919 200.5565"
   version="1.1"
   id="svg1"
   xml:space="preserve"
   xmlns:inkscape="http://www.inkscape.org/namespaces/inkscape"
   xmlns:sodipodi="http://sodipodi.sourceforge.net/DTD/sodipodi-0.dtd"
   xmlns="http://www.w3.org/2000/svg"
   xmlns:svg="http://www.w3.org/2000/svg"><sodipodi:namedview
     id="namedview1"
     pagecolor="#ffffff"
     bordercolor="#000000"
     borderopacity="0.25"
     inkscape:showpageshadow="2"
     inkscape:pageopacity="0.0"
     inkscape:pagecheckerboard="0"
     inkscape:deskcolor="#d1d1d1"
     inkscape:document-units="mm"><inkscape:page
       x="5.266457e-21"
       y="-1.6788677e-20"
       width="170.96919"
       height="200.5565"
       id="page2"
       margin="0"
       bleed="0" /></sodipodi:namedview><defs
     id="defs1" /><g
     inkscape:label="Camada 1"
     inkscape:groupmode="layer"
     id="layer1"
     transform="translate(334.17952,-655.91556)"><path
       style="fill:#f2f2f2;stroke-width:1.07338"
       d="m -252.36023,855.77868 c -0.65957,-0.25965 -12.09112,-7.89066 -25.40344,-16.95786 -25.31754,-17.24392 -28.21113,-19.77152 -31.9061,-27.8702 -1.12409,-2.46385 -7.09864,-23.73585 -13.27678,-47.27109 l -11.23297,-42.79132 3.04599,-8.29222 3.04599,-8.29223 -1.85379,-4.18874 c -3.43636,-7.76469 -3.55885,-7.42025 5.91208,-16.62437 10.75647,-10.45344 14.20855,-11.67006 25.46841,-8.9758 1.86057,0.4452 3.07318,-0.57736 10.72448,-9.04369 l 8.62672,-9.54564 30.57545,-0.005 30.57545,-0.005 8.61016,9.50849 c 6.85518,7.57039 8.94645,9.41217 10.26007,9.036 0.90746,-0.25986 3.78213,-0.69209 6.38816,-0.9605 7.54488,-0.7771 11.19444,1.06846 20.2168,10.22354 4.19699,4.25872 7.62727,8.37537 7.62283,9.14812 -0.004,0.77275 -0.93251,3.39083 -2.0624,5.81796 -1.12989,2.42712 -2.05435,4.80306 -2.05435,5.27987 0,0.4768 1.32011,4.43068 2.93358,8.7864 l 2.93358,7.91949 -11.22938,42.89792 c -6.2552,23.89579 -12.2524,45.09051 -13.53887,47.84771 -1.27023,2.72232 -3.75526,6.51974 -5.52228,8.43863 -1.76704,1.91889 -14.16413,10.9205 -27.54911,20.00358 -24.98112,16.95228 -26.59426,17.77235 -31.31028,15.91571 z m 12.74867,-48.6301 c 4.08356,-3.47089 9.93047,-8.13571 12.99312,-10.36631 3.06267,-2.23049 5.56849,-4.37222 5.56849,-4.75917 0,-0.91238 -8.73313,-5.53566 -18.77811,-9.94104 l -7.93765,-3.4812 -4.27897,1.45443 c -6.56234,2.2306 -23.01483,10.77227 -23.24179,12.06645 -0.11089,0.63244 2.25948,2.82032 5.2675,4.86211 3.00802,2.04179 8.7913,6.5894 12.85173,10.1058 4.06043,3.51641 8.00101,6.38803 8.75683,6.38159 0.75581,-0.0107 4.7153,-2.85176 8.79885,-6.32266 z m -30.96877,-26.6474 c 9.21124,-4.62242 19.00685,-12.88748 19.00685,-16.03701 0,-1.39325 -2.43999,-3.46123 -10.65596,-9.0314 -5.86077,-3.97342 -10.88612,-7.82422 -11.16744,-8.55733 -0.30452,-0.79356 1.3368,-4.91972 4.05629,-10.19719 2.51226,-4.87535 4.56775,-9.75617 4.56775,-10.84624 0,-3.33121 -3.40091,-5.47435 -16.56335,-10.43769 -6.9485,-2.62016 -12.76539,-5.15925 -12.92645,-5.64241 -0.3136,-0.9408 13.61632,-2.40779 18.76532,-1.97621 4.37216,0.36646 16.71945,4.08764 17.46624,5.26389 0.98349,1.54907 0.89064,2.43616 -1.792,17.12252 -1.36118,7.45192 -2.47488,14.35865 -2.47488,15.34829 0,2.10651 0.97483,2.56721 8.50467,4.01934 4.76323,0.91859 6.51924,0.89909 11.54944,-0.12824 3.26267,-0.66634 6.42029,-1.68566 7.01692,-2.26514 0.89482,-0.86912 0.57723,-3.77089 -1.81375,-16.57204 -2.03416,-10.89072 -2.6615,-15.96134 -2.1037,-17.00362 0.79618,-1.48768 8.50902,-4.18547 15.92917,-5.57171 4.00585,-0.74837 19.40688,0.37286 20.57049,1.49759 0.36773,0.35543 -5.46656,2.97507 -12.96508,5.82142 -7.49851,2.84635 -14.25965,5.86688 -15.02476,6.71232 -2.24704,2.48294 -1.51382,6.06234 2.93064,14.30681 2.2985,4.26369 4.17908,8.52077 4.17908,9.46015 0,1.70999 -2.58912,3.80818 -16.07616,13.028 -3.17028,2.16727 -5.89431,4.6163 -6.05339,5.44227 -0.18731,0.9727 1.26251,2.95137 4.11424,5.61519 6.23218,5.82129 10.27093,8.49391 17.91526,11.85489 l 6.6773,2.93581 2.34186,-1.21099 c 3.57775,-1.85009 8.18865,-7.41623 9.34742,-11.28395 0.93513,-3.12108 0.84634,-3.97399 -0.88562,-8.50711 -3.63752,-9.52041 -4.00407,-8.5571 8.19539,-21.53736 12.34535,-13.13547 15.67171,-17.29585 15.67171,-19.6011 0,-2.69098 -4.73913,-10.7217 -12.13849,-20.56933 -3.85456,-5.12995 -7.87655,-10.22585 -8.93776,-11.32424 l -1.92946,-1.99707 -10.78244,1.92545 -10.78244,1.92546 -8.44446,-2.63588 c -12.82015,-4.00172 -13.20161,-4.01155 -23.97656,-0.61799 -11.06681,3.48547 -10.81523,3.47012 -21.82661,1.33221 -4.6668,-0.90609 -9.02595,-1.64743 -9.68699,-1.64743 -1.43563,0 -12.23095,13.4089 -18.40436,22.86012 -2.64375,4.04747 -4.57225,8.0027 -4.8266,9.89908 -0.49797,3.71264 0.11627,4.53787 16.03551,21.54354 5.55818,5.93749 10.10577,11.38004 10.10577,12.09457 0,0.71452 -0.92808,3.50418 -2.0624,6.19923 -2.51703,5.98015 -2.59077,9.11207 -0.32476,13.79299 1.71468,3.54206 8.13008,9.30581 10.3579,9.30581 0.62359,0 4.81788,-1.84869 9.32065,-4.10827 z"
       id="path5" /></g></svg>
