<?xml version="1.0" encoding="UTF-8" standalone="no"?>
<!-- Created with Inkscape (http://www.inkscape.org/) -->

<svg
   width="201.60187mm"
   height="201.48009mm"
   viewBox="0 0 201.60187 201.48009"
   version="1.1"
   id="svg1"
   xml:space="preserve"
   xmlns:inkscape="http://www.inkscape.org/namespaces/inkscape"
   xmlns:sodipodi="http://sodipodi.sourceforge.net/DTD/sodipodi-0.dtd"
   xmlns="http://www.w3.org/2000/svg"
   xmlns:svg="http://www.w3.org/2000/svg"><sodipodi:namedview
     id="namedview1"
     pagecolor="#ffffff"
     bordercolor="#000000"
     borderopacity="0.25"
     inkscape:showpageshadow="2"
     inkscape:pageopacity="0.0"
     inkscape:pagecheckerboard="0"
     inkscape:deskcolor="#d1d1d1"
     inkscape:document-units="mm"><inkscape:page
       x="6.272623e-20"
       y="0"
       width="201.60188"
       height="201.48009"
       id="page2"
       margin="0"
       bleed="0" /></sodipodi:namedview><defs
     id="defs1" /><g
     inkscape:label="Camada 1"
     inkscape:groupmode="layer"
     id="layer1"
     transform="translate(334.66655,-403.24964)"><path
       style="fill:#f2f2f2"
       d="m -232.70096,604.57289 c 0,-0.16745 0.79083,-1.62051 4.11034,-7.55224 0.61078,-1.0914 1.48362,-2.61469 1.93966,-3.38508 0.45605,-0.77039 0.82917,-1.44542 0.82917,-1.50008 0,-0.0546 0.63237,-1.15074 1.40526,-2.43575 0.7729,-1.28501 1.98556,-3.34841 2.69481,-4.58534 1.50887,-2.63147 6.26482,-10.87745 9.00345,-15.61041 1.77501,-3.0676 3.53435,-6.11165 8.63993,-14.94896 1.09294,-1.89177 4.41018,-7.60677 7.37166,-12.7 8.42313,-14.48631 8.80907,-15.17813 10.11058,-18.12396 1.28943,-2.91847 2.53421,-7.06946 3.25303,-10.84791 0.66569,-3.49919 0.81264,-12.12809 0.2696,-15.83104 -1.57165,-10.71697 -6.37833,-20.77025 -13.5568,-28.35438 -0.48208,-0.50932 -0.87755,-1.07487 -0.87881,-1.25677 -0.002,-0.26254 5.8513,-0.33073 28.38984,-0.33073 22.29641,0 28.48912,0.071 28.84386,0.33073 0.90168,0.66017 3.60744,8.99841 5.04411,15.54427 1.73004,7.88253 2.4907,17.14068 2.03863,24.81254 -1.6249,27.57542 -11.32775,49.49505 -29.95374,67.66827 -15.11331,14.74593 -30.81346,23.11524 -51.15604,27.26986 -5.79347,1.18321 -18.39854,2.44175 -18.39854,1.83698 z m -21.29895,-1.86203 c -12.47862,-2.59824 -23.43002,-7.02001 -33.99896,-13.72749 -2.10633,-1.33677 -9.35654,-6.54223 -9.78958,-7.02868 -0.0728,-0.0817 -1.32292,-1.17677 -2.77813,-2.43343 -15.07066,-13.01437 -26.75187,-32.38443 -31.49052,-52.21831 -1.94301,-8.13257 -2.62426,-14.21185 -2.60917,-23.28334 0.0241,-14.46215 2.4045,-26.5139 7.68224,-38.89374 1.99782,-4.68624 4.87723,-10.32974 5.25136,-10.29243 0.23056,0.023 5.61648,9.21326 20.62489,35.19324 2.17619,3.76705 4.50749,7.80168 5.18066,8.96585 4.20912,7.27921 6.91295,11.97601 12.03129,20.89948 7.28757,12.70535 8.25178,14.19091 12.39349,19.09475 1.10412,1.30728 6.74135,6.00317 9.22961,7.68838 11.09616,7.51506 25.50887,10.26473 39.03856,7.44781 1.49595,-0.31146 2.7907,-0.49551 2.87721,-0.409 0.1543,0.1543 -2.71321,5.23473 -12.34698,21.87545 -6.30911,10.89793 -12.76626,22.10402 -14.20964,24.66018 -0.63304,1.12107 -1.46069,2.28192 -1.83923,2.57969 -0.84921,0.66798 -1.54577,0.65227 -5.2471,-0.11841 z m 15.90378,-62.30869 c -11.12564,-1.40614 -20.7986,-7.50673 -26.93766,-16.98916 -6.56804,-10.14504 -7.34323,-24.2605 -1.93686,-35.26839 3.1713,-6.45709 7.24132,-11.10465 13.02777,-14.87645 4.36045,-2.84229 8.86527,-4.57384 14.36276,-5.52072 3.00093,-0.51688 10.18523,-0.37298 12.96458,0.25968 7.63526,1.73801 13.58387,5.02773 18.83288,10.41505 7.33227,7.52545 11.0126,17.23778 10.43472,27.53706 -0.95143,16.95695 -13.24981,30.88196 -30.06135,34.03735 -2.73043,0.51248 -8.19897,0.72002 -10.68684,0.40558 z m -47.59112,-52.19141 c -0.78288,-1.34607 -2.83191,-4.88818 -4.55339,-7.87135 -1.72148,-2.98318 -3.68841,-6.37646 -4.37096,-7.54063 -0.68254,-1.16416 -2.88158,-4.97416 -4.88674,-8.46666 -2.00517,-3.4925 -4.21476,-7.3025 -4.9102,-8.46667 -0.69544,-1.16417 -1.52897,-2.59292 -1.85228,-3.175 -0.32331,-0.58208 -1.7257,-3.02286 -3.11642,-5.42396 -3.37998,-5.83556 -3.3427,-5.75628 -3.02817,-6.44034 0.6587,-1.43257 6.99293,-8.10466 11.70408,-12.32836 15.55408,-13.94476 35.34198,-22.53241 57.41704,-24.91813 4.55832,-0.49263 14.95114,-0.42195 19.57418,0.13313 20.30331,2.43778 37.63153,9.51123 52.65707,21.49484 4.71378,3.75948 11.78596,10.87908 15.86703,15.97345 2.86827,3.58043 7.39577,10.06164 7.84327,11.22781 0.13639,0.35542 -5.01701,0.40997 -46.50502,0.49226 -50.42415,0.10001 -47.35654,0.0148 -53.01897,1.47323 -5.43538,1.39999 -11.45934,4.0381 -15.46756,6.77381 -9.5127,6.49267 -17.20314,16.57979 -20.43085,26.79799 -0.47116,1.49159 -1.00111,2.71198 -1.17768,2.71198 -0.17656,0 -0.96155,-1.10133 -1.74443,-2.4474 z"
       id="path4" /></g></svg>
