<?xml version="1.0" encoding="UTF-8" standalone="no"?>
<!-- Created with Inkscape (http://www.inkscape.org/) -->

<svg
   width="193.3831mm"
   height="183.81647mm"
   viewBox="0 0 193.3831 183.81647"
   version="1.1"
   id="svg1"
   xml:space="preserve"
   xmlns:inkscape="http://www.inkscape.org/namespaces/inkscape"
   xmlns:sodipodi="http://sodipodi.sourceforge.net/DTD/sodipodi-0.dtd"
   xmlns="http://www.w3.org/2000/svg"
   xmlns:svg="http://www.w3.org/2000/svg"><sodipodi:namedview
     id="namedview1"
     pagecolor="#ffffff"
     bordercolor="#000000"
     borderopacity="0.25"
     inkscape:showpageshadow="2"
     inkscape:pageopacity="0.0"
     inkscape:pagecheckerboard="0"
     inkscape:deskcolor="#d1d1d1"
     inkscape:document-units="mm"><inkscape:page
       x="2.9253721e-21"
       y="1.6739831e-21"
       width="193.3831"
       height="183.81647"
       id="page2"
       margin="0"
       bleed="0" /></sodipodi:namedview><defs
     id="defs1" /><g
     inkscape:label="Camada 1"
     inkscape:groupmode="layer"
     id="layer1"
     transform="translate(320.38512,-180.74243)"><path
       style="fill:#f2f2f2"
       d="m -234.67014,364.17286 c -10.48385,-1.33118 -20.07303,-3.93583 -28.11929,-7.63785 -0.84077,-0.38683 -1.66283,-0.62041 -1.82682,-0.51906 -0.16398,0.10135 -0.23076,0.0752 -0.1484,-0.058 0.0824,-0.13328 -0.8815,-0.77226 -2.14193,-1.41996 -1.26043,-0.6477 -2.58934,-1.37435 -2.95315,-1.61477 -0.3638,-0.24042 -1.19724,-0.72431 -1.85208,-1.07531 -1.4786,-0.79253 -6.13358,-3.82405 -8.08089,-5.26261 -0.80015,-0.59111 -1.58987,-0.99128 -1.75493,-0.88927 -0.16882,0.10434 -0.22779,0.0685 -0.13479,-0.082 0.0909,-0.14712 -0.33716,-0.66395 -0.9513,-1.1485 -6.87126,-5.42131 -13.62105,-12.25334 -18.41743,-18.64181 -0.76479,-1.01865 -1.56544,-2.06755 -1.77922,-2.33089 -1.16177,-1.43108 -4.94252,-7.6484 -6.46634,-10.63369 -5.24813,-10.28157 -7.84371,-19.52502 -8.90962,-31.72929 -0.63017,-7.21521 -0.0841,-14.72963 1.63587,-22.5103 0.98877,-4.47295 0.98188,-4.40782 0.4355,-4.11541 -0.25698,0.13754 -0.62086,0.43516 -0.80861,0.66139 -0.18775,0.22622 -0.47561,0.41463 -0.6397,0.41868 -0.16408,0.004 -0.76602,0.36123 -1.33765,0.79375 -0.57162,0.43251 -1.15439,0.78639 -1.29503,0.78639 -0.61604,0 0.54718,-6.05651 1.93101,-10.05417 1.69791,-4.90498 4.78646,-10.96079 8.01455,-15.71435 0.86899,-1.27965 1.07005,-1.80502 1.06659,-2.78701 -0.002,-0.66555 -0.0298,-3.23416 -0.0609,-5.70801 -0.079,-6.27311 0.58032,-10.40955 2.67407,-16.77551 0.90212,-2.74283 3.69371,-8.45208 4.72217,-9.6576 1.76361,-2.06721 2.99156,-3.31001 3.16474,-3.20298 0.10536,0.0651 0.26986,1.05726 0.36556,2.20475 0.42357,5.07896 2.54413,10.48391 5.67466,14.46373 l 0.59991,0.76266 3.49518,-3.56291 c 9.98826,-10.18178 20.49867,-16.89219 33.70974,-21.52209 9.05779,-3.17437 16.81893,-4.56481 26.97077,-4.83196 16.04649,-0.42226 30.03107,2.81009 44.54696,10.29642 3.467,1.78806 5.79341,2.77212 9.26041,3.91713 7.06483,2.33324 11.2557,4.41642 16.00729,7.95683 4.11307,3.06465 6.78438,5.86581 9.7329,10.206 0.80734,1.18839 1.55641,2.08136 1.6646,1.98437 0.1082,-0.097 0.11836,-0.0393 0.0226,0.12817 -0.0958,0.16748 0.23995,1.17951 0.74604,2.24895 0.50609,1.06945 1.27491,2.95648 1.70849,4.19341 0.43358,1.23693 0.79315,2.11275 0.79904,1.94626 0.0298,-0.84327 -0.62324,-6.25673 -1.19241,-9.88376 -0.35394,-2.25557 -0.64476,-4.24987 -0.64625,-4.43177 -0.0139,-1.69898 3.68832,3.15294 6.15351,8.06438 4.13732,8.24288 7.2646,19.96811 8.41669,31.55697 0.16636,1.67349 0.37857,3.49154 0.47156,4.04012 l 0.16907,0.9974 1.05834,-2.91554 c 0.58208,-1.60355 1.17739,-2.87647 1.32291,-2.82871 0.69924,0.2295 0.89038,15.60731 0.26695,21.47652 -2.3117,21.76332 -10.29857,41.15844 -24.18795,58.7375 -1.37973,1.74625 -2.58737,3.23453 -2.68364,3.30729 -0.0963,0.0728 -0.80608,0.9062 -1.57736,1.85209 -0.77127,0.94588 -3.37788,3.68614 -5.79245,6.08947 -8.21531,8.17704 -16.56601,13.62896 -27.80575,18.15352 -1.23693,0.49792 -2.48709,1.01931 -2.77813,1.15864 -0.29104,0.13933 -2.55323,0.85865 -5.02708,1.59848 -5.19283,1.55298 -11.91783,2.94374 -17.11912,3.54031 -4.51336,0.51768 -16.2543,0.51973 -20.31942,0.004 z m 24.22674,-43.79231 c 5.26326,-0.73205 10.62702,-3.0236 16.42109,-7.01555 5.63589,-3.88297 11.78048,-9.90824 16.36987,-16.05198 1.95442,-2.61635 2.09931,-2.48502 1.89928,1.72159 -0.0917,1.92815 -0.34609,4.57729 -0.56535,5.88698 -0.58139,3.4728 -0.55452,3.63102 0.42691,2.51354 0.44731,-0.50933 1.44422,-1.89129 2.21536,-3.07102 2.57159,-3.93421 3.95332,-7.47359 5.12559,-13.12954 1.36652,-6.59317 1.68116,-13.47066 1.04746,-22.89584 -0.16893,-2.51256 -0.21844,-4.65568 -0.11002,-4.7625 0.32259,-0.31785 2.89757,2.64645 3.6425,4.19323 0.37968,0.78836 1.06509,2.32635 1.52314,3.41775 0.45805,1.09141 0.92664,2.07909 1.04132,2.19486 0.46823,0.47264 1.50317,-6.04573 1.75577,-11.0584 0.34205,-6.78752 -0.50361,-14.09201 -2.96359,-25.59844 -0.12044,-0.56332 -0.0567,-0.7276 0.28234,-0.7276 0.50675,0 4.82979,2.56658 6.34744,3.76846 l 1.03064,0.81621 -0.18857,-1.96161 c -0.61973,-6.44672 -3.41751,-11.98308 -8.74285,-17.30069 -5.77434,-5.76596 -13.14983,-10.31629 -24.28664,-14.98372 -1.85654,-0.77807 -3.33681,-1.53082 -3.2895,-1.67277 0.19163,-0.57489 5.70382,-1.47421 9.03584,-1.47421 0.8061,0 1.46564,-0.1012 1.46564,-0.22489 0,-0.44639 -1.52781,-2.31642 -2.96257,-3.62616 -2.85749,-2.6085 -6.78762,-4.55851 -13.259,-6.57869 -1.70116,-0.53105 -3.09302,-1.09851 -3.09302,-1.26102 0,-0.21273 1.14841,-0.24423 4.10105,-0.11251 2.25557,0.10062 4.10104,0.1312 4.10104,0.0679 0,-0.12079 -4.4746,-1.91084 -7.40834,-2.96369 -10.5084,-3.77121 -26.38402,-5.05405 -38.89374,-3.14283 -9.89144,1.5112 -20.57765,5.18724 -28.93097,9.95221 -2.40786,1.37351 -7.82241,4.93677 -9.2596,6.09365 -3.08264,2.4814 -7.00675,6.07395 -10.49276,9.60622 -2.25557,2.2855 -5.22568,5.00529 -6.60024,6.04396 -2.83767,2.14427 -3.62794,2.79742 -2.66018,2.19863 6.47173,-4.00432 9.67868,-5.37005 15.47813,-6.59161 3.25069,-0.68471 9.97236,-0.80241 13.15786,-0.23041 l 2.04536,0.36728 1.51252,-1.29332 c 6.78823,-5.80447 12.5481,-8.85392 19.93808,-10.55581 3.01793,-0.69502 3.95972,-0.79991 3.95972,-0.44099 0,0.12011 -0.74564,0.82335 -1.65698,1.56276 -2.38845,1.93786 -6.21391,5.97112 -7.84679,8.27302 -1.75926,2.48007 -3.27245,5.62054 -3.95205,8.20208 -0.85261,3.23874 -0.90236,3.82844 -0.37393,4.43186 0.93322,1.06566 9.17814,7.51629 10.88693,8.51768 l 1.75219,1.02683 5.42396,0.30608 c 2.98318,0.16834 5.52824,0.40811 5.6557,0.53282 0.12745,0.12471 0.18001,1.30854 0.1168,2.63073 l -0.11494,2.40397 -1.02909,1.0539 c -0.56601,0.57964 -2.10685,1.6977 -3.4241,2.48458 -2.46549,1.4728 -3.10832,1.95059 -7.55239,5.61332 -1.43246,1.18061 -2.91096,2.38765 -3.28556,2.68231 l -0.68109,0.53574 0.66469,1.18925 c 1.60238,2.86698 2.31549,5.91672 2.66868,11.41306 l 0.18542,2.88567 -0.76925,-0.16372 c -6.19769,-1.31908 -9.63422,-1.88898 -14.57169,-2.41652 l -1.36702,-0.14606 -1.4449,2.8431 c -0.79469,1.56371 -1.52359,3.39078 -1.61979,4.06015 l -0.17489,1.21705 1.92848,2.07186 c 7.42489,7.9769 11.20275,10.77809 16.52521,12.25301 5.31931,1.47406 6.50213,1.23662 16.6241,-3.33712 1.60073,-0.72331 3.74385,-1.52339 4.7625,-1.77795 5.01505,-1.25325 10.98414,0.79606 15.79497,5.42275 l 2.0644,1.98539 v 1.11101 c 0,2.51104 -0.81266,3.12884 -4.62591,3.51673 -3.49425,0.35543 -4.38535,0.69795 -7.51935,2.89025 -7.543,5.27648 -9.55673,6.41624 -13.37851,7.5722 -4.52977,1.37009 -8.56145,1.97324 -14.38957,2.15272 -3.8829,0.11958 -5.24841,0.24118 -4.89479,0.43589 0.26974,0.14853 0.64013,0.4792 0.8231,0.73481 0.35845,0.50079 4.99474,4.10585 6.94337,5.399 0.65485,0.43456 1.25016,0.85726 1.32292,0.93931 0.32415,0.36557 3.54539,2.1722 6.08542,3.413 3.93047,1.92003 9.80384,3.65494 13.75832,4.06402 2.15081,0.2225 8.58245,0.15905 10.46842,-0.10326 z m 29.21908,-20.48605 c 0,-0.0728 0.0595,-0.13229 0.13229,-0.13229 0.0728,0 0.1323,0.0595 0.1323,0.13229 0,0.0728 -0.0595,0.13229 -0.1323,0.13229 -0.0728,0 -0.13229,-0.0595 -0.13229,-0.13229 z m 1.32292,-1.32291 c 0,-0.0728 0.0595,-0.1323 0.13229,-0.1323 0.0728,0 0.13229,0.0595 0.13229,0.1323 0,0.0728 -0.0595,0.13229 -0.13229,0.13229 -0.0728,0 -0.13229,-0.0595 -0.13229,-0.13229 z m -67.99791,-14.2875 c 0,-0.0728 0.0595,-0.1323 0.13229,-0.1323 0.0728,0 0.13229,0.0595 0.13229,0.1323 0,0.0728 -0.0595,0.13229 -0.13229,0.13229 -0.0728,0 -0.13229,-0.0595 -0.13229,-0.13229 z m -41.275,-69.85 c 0,-0.0728 0.0595,-0.13229 0.13229,-0.13229 0.0728,0 0.13229,0.0595 0.13229,0.13229 0,0.0728 -0.0595,0.13229 -0.13229,0.13229 -0.0728,0 -0.13229,-0.0595 -0.13229,-0.13229 z m 8.46667,-15.34583 c 0,-0.0728 0.0595,-0.1323 0.13229,-0.1323 0.0728,0 0.13229,0.0595 0.13229,0.1323 0,0.0728 -0.0595,0.13229 -0.13229,0.13229 -0.0728,0 -0.13229,-0.0595 -0.13229,-0.13229 z"
       id="path3"
       inkscape:export-filename="firefox.svg"
       inkscape:export-xdpi="96"
       inkscape:export-ydpi="96" /></g></svg>
