<?xml version="1.0" encoding="UTF-8" standalone="no"?>
<!-- Created with Inkscape (http://www.inkscape.org/) -->

<svg
   width="183.69939mm"
   height="183.63428mm"
   viewBox="0 0 183.69939 183.63428"
   version="1.1"
   id="svg1"
   xml:space="preserve"
   xmlns:inkscape="http://www.inkscape.org/namespaces/inkscape"
   xmlns:sodipodi="http://sodipodi.sourceforge.net/DTD/sodipodi-0.dtd"
   xmlns="http://www.w3.org/2000/svg"
   xmlns:svg="http://www.w3.org/2000/svg"><sodipodi:namedview
     id="namedview1"
     pagecolor="#ffffff"
     bordercolor="#000000"
     borderopacity="0.25"
     inkscape:showpageshadow="2"
     inkscape:pageopacity="0.0"
     inkscape:pagecheckerboard="0"
     inkscape:deskcolor="#d1d1d1"
     inkscape:document-units="mm"><inkscape:page
       x="-1.0578894e-20"
       y="0"
       width="183.69939"
       height="183.63428"
       id="page2"
       margin="0"
       bleed="0" /></sodipodi:namedview><defs
     id="defs1" /><g
     inkscape:label="Camada 1"
     inkscape:groupmode="layer"
     id="layer1"
     transform="translate(347.71801,-1153.2702)"><path
       style="fill:#f2f2f2;stroke-width:0.711631"
       d="m -260.76009,1336.8129 c -9.1331,-0.5386 -17.03933,-2.1338 -26.1717,-5.2808 -1.5785,-0.544 -6.69643,-2.6698 -7.91905,-3.2894 -0.51947,-0.2632 -1.03914,-0.4201 -1.15482,-0.3486 -0.11568,0.072 -0.15964,0.048 -0.0977,-0.052 0.0619,-0.1002 -0.45452,-0.4587 -1.14769,-0.7965 -4.92722,-2.402 -10.88083,-6.2468 -15.94659,-10.2982 -10.69964,-8.5574 -18.99446,-18.9035 -25.12131,-31.3338 -15.70745,-31.8677 -11.48949,-69.8265 10.86901,-97.8144 2.9348,-3.6737 8.92726,-9.8201 12.36944,-12.6873 17.631,-14.6854 38.87724,-22.1666 61.38114,-21.6133 13.73596,0.3376 25.9972,3.3404 38.22199,9.3607 9.28666,4.5732 16.94295,10.0644 24.3966,17.4972 16.80141,16.7544 26.27767,38.8022 27.03164,62.8928 0.31562,10.0845 -1.84369,23.3793 -5.30575,32.6675 -5.76396,15.464 -13.75174,27.284 -25.68097,38.0016 -14.5999,13.1171 -33.66277,21.322 -53.20322,22.8993 -3.47173,0.2802 -9.49066,0.3742 -12.52101,0.1956 z m 11.57958,-14.483 c 0.93201,-0.1067 2.07585,-0.2491 2.54185,-0.3165 l 0.84729,-0.1225 -2.27957,-0.4232 c -14.00569,-2.6006 -26.10457,-8.9806 -35.56807,-18.7557 -12.31915,-12.7249 -19.76789,-30.4006 -21.36541,-50.6996 -0.24602,-3.1262 -0.24581,-10.8506 3.7e-4,-13.9727 1.40913,-17.8699 7.30882,-33.6416 17.20171,-45.9856 9.79314,-12.2196 22.94361,-20.1102 38.78397,-23.271 l 3.03871,-0.6065 -2.44771,-0.2679 c -1.60308,-0.1756 -4.42935,-0.2646 -8.19044,-0.2582 -6.18465,0.011 -9.37892,0.3049 -14.39528,1.3259 -19.71824,4.0132 -36.49678,14.8737 -48.11662,31.145 -7.76908,10.8791 -12.45541,23.4167 -13.96941,37.3732 -0.31913,2.9421 -0.31875,12.2798 6.6e-4,15.2512 1.75607,16.3367 7.95566,30.7919 18.41164,42.9291 3.58984,4.1671 10.51854,10.6518 11.038,10.3308 0.11781,-0.073 0.15276,-0.041 0.0815,0.074 -0.0709,0.1148 0.58426,0.7199 1.52426,1.4075 12.078,8.8356 25.44587,13.7755 40.62388,15.0119 2.49197,0.203 9.87983,0.1008 12.23857,-0.1692 z m 21.84113,-14.2416 c 14.69029,-1.6482 26.54586,-8.2948 35.44326,-19.8703 5.70948,-7.428 9.94699,-17.1623 11.99729,-27.5593 2.20911,-11.2027 2.09006,-21.4735 -0.38198,-32.9549 -0.80947,-3.7596 -1.4059,-5.7565 -2.89622,-9.6968 -5.10002,-13.4838 -12.82677,-23.081 -23.85578,-29.6307 -8.19002,-4.8638 -19.96911,-7.3954 -31.22713,-6.7118 -8.40754,0.5106 -14.8034,2.1248 -21.36316,5.3918 -3.7308,1.8581 -8.02983,4.6297 -7.78802,5.0209 0.0661,0.107 0.0275,0.1362 -0.0868,0.065 -0.42944,-0.2654 -5.95285,4.8906 -8.44812,7.8861 -3.50429,4.207 -7.24501,10.4719 -9.38541,15.7187 -8.09973,19.8551 -7.45529,43.4593 1.69895,62.2284 6.96075,14.2719 18.25464,24.1984 32.10414,28.217 7.41244,2.1509 15.94924,2.8197 24.18902,1.8953 z M -238.52881,1295 c 9.50748,-10.5603 15.41468,-24.3359 17.43381,-40.6557 0.42309,-3.4196 0.48697,-14.5163 0.10242,-17.7911 -1.98825,-16.9322 -7.79913,-30.4823 -18.02659,-42.0347 -0.4813,-0.5437 -0.77955,-0.9886 -0.66277,-0.9886 0.9042,0 6.90105,2.8414 9.61242,4.5544 12.31906,7.7832 20.31344,20.1368 22.76204,35.1739 0.7441,4.5696 0.86613,6.2312 0.86428,11.7678 -0.002,7.0526 -0.45888,11.0596 -1.90917,16.7575 -3.92915,15.4366 -14.26679,27.7462 -28.38441,33.7988 -1.23341,0.5287 -2.5003,1.0129 -2.81532,1.076 l -0.57275,0.1145 z"
       id="path7" /></g></svg>
