<?xml version="1.0" encoding="UTF-8" standalone="no"?>
<!-- Created with Inkscape (http://www.inkscape.org/) -->

<svg
   width="159.86559mm"
   height="159.73923mm"
   viewBox="0 0 159.86559 159.73923"
   version="1.1"
   id="svg1"
   xml:space="preserve"
   xmlns:inkscape="http://www.inkscape.org/namespaces/inkscape"
   xmlns:sodipodi="http://sodipodi.sourceforge.net/DTD/sodipodi-0.dtd"
   xmlns="http://www.w3.org/2000/svg"
   xmlns:svg="http://www.w3.org/2000/svg"><sodipodi:namedview
     id="namedview1"
     pagecolor="#ffffff"
     bordercolor="#000000"
     borderopacity="0.25"
     inkscape:showpageshadow="2"
     inkscape:pageopacity="0.0"
     inkscape:pagecheckerboard="0"
     inkscape:deskcolor="#d1d1d1"
     inkscape:document-units="mm"><inkscape:page
       x="-1.5407732e-20"
       y="0"
       width="159.86559"
       height="159.73923"
       id="page2"
       margin="0"
       bleed="0" /></sodipodi:namedview><defs
     id="defs1" /><g
     inkscape:label="Camada 1"
     inkscape:groupmode="layer"
     id="layer1"
     transform="translate(338.28025,-916.31227)"><path
       style="fill:#f2f2f2;stroke-width:2.69275"
       d="m -273.65366,1074.8669 c -11.81793,-2.577 -19.80758,-5.8775 -28.94425,-11.9568 -18.35643,-12.2139 -30.98571,-31.5342 -34.7574,-53.1716 -1.67193,-9.5916 -1.01258,-24.91957 1.4553,-33.8314 4.06379,-14.67475 10.67313,-26.14535 21.03604,-36.50825 10.44217,-10.44218 21.80137,-16.95751 36.88585,-21.1567 6.41358,-1.78543 7.99708,-1.93975 19.79546,-1.92949 10.95404,0.0108 13.69379,0.24154 18.78681,1.59147 30.22301,8.01029 51.8213,29.74696 59.38573,59.76619 1.33835,5.31121 1.58829,8.2517 1.59516,18.76608 0.008,11.4255 -0.15537,13.0558 -1.94651,19.4972 -8.22973,29.5952 -29.26372,50.4443 -58.75463,58.2382 -8.23407,2.1761 -26.09686,2.5356 -34.53756,0.6951 z m 13.68985,-16.0904 v -7.4808 h 1.42493 1.42492 v 7.4808 7.4808 h 2.14359 2.1436 l -0.46054,-3.9185 c -0.42567,-3.6218 -0.35028,-3.9185 0.99559,-3.9185 1.20711,0 1.53996,0.6093 1.94611,3.5623 0.422,3.0684 0.71113,3.5623 2.08548,3.5623 0.87754,0 1.76518,-0.1697 1.97255,-0.3771 0.20734,-0.2073 -0.20761,-3.1729 -0.92186,-6.5902 -1.66835,-7.9807 -1.66744,-8.7068 0.0108,-8.7068 1.41803,0 2.11968,2.1731 3.29631,10.2092 0.50316,3.4365 1.53333,4.5489 3.51019,3.7903 0.92038,-0.3532 0.91793,-0.7701 -0.0188,-3.4287 -1.16446,-3.3004 -0.94206,-4.8712 0.68964,-4.8712 0.64082,0 1.4281,1.3181 2.02142,3.3842 0.77926,2.7137 1.24624,3.3371 2.35689,3.1465 2.5243,-0.4331 2.4856,-1.2135 -0.39443,-7.9518 -2.16196,-5.0583 -2.63968,-6.8224 -1.96367,-7.2512 1.55523,-0.9862 2.08403,-0.3158 4.61587,5.8526 2.95247,7.193 3.16773,7.4607 5.14709,6.4014 l 1.54176,-0.8251 -1.80729,-3.084 c -1.54648,-2.6388 -1.65963,-3.2065 -0.78403,-3.9332 1.36771,-1.1351 2.01989,-0.6224 3.56378,2.8013 1.43618,3.1849 1.65852,3.3071 3.52878,1.9395 l 1.29201,-0.9447 -4.13088,-6.2073 c -3.67865,-5.5278 -4.01344,-6.3248 -3.05824,-7.28 0.95523,-0.9552 1.53603,-0.3729 5.30548,5.3189 l 4.23285,6.3916 1.62637,-1.2268 1.6264,-1.2268 -2.17858,-2.7413 c -1.78222,-2.2427 -2.01921,-2.9335 -1.30264,-3.7969 0.74821,-0.9015 1.24844,-0.6229 3.43005,1.9101 l 2.55411,2.9656 1.33803,-1.4785 1.33803,-1.4786 -5.1308,-5.1652 c -4.05198,-4.0792 -4.9471,-5.349 -4.25706,-6.0391 0.69005,-0.69 1.95984,0.2052 6.03904,4.2571 l 5.16527,5.1308 1.47851,-1.3381 1.47851,-1.338 -2.96553,-2.5541 c -2.68581,-2.3132 -2.85443,-2.6463 -1.78759,-3.5317 1.01299,-0.8407 1.39951,-0.7836 2.76008,0.4076 3.55031,3.1083 3.77704,3.1847 5.10258,1.72 l 1.24313,-1.3736 -6.12219,-4.0742 c -6.40272,-4.261 -6.47467,-4.3383 -5.48683,-5.8974 0.47651,-0.7521 1.88686,-0.076 6.31655,3.028 3.13668,2.1979 5.98465,3.9962 6.32878,3.9962 0.64976,0 2.66515,-2.837 2.26463,-3.1879 -0.12521,-0.1095 -1.59004,-0.8864 -3.2554,-1.7262 -3.16539,-1.5963 -3.40052,-1.9442 -2.39084,-3.5378 0.49638,-0.7836 1.24243,-0.6037 3.86092,0.9309 l 3.24569,1.902 0.79204,-1.4799 c 0.43564,-0.814 0.62946,-1.7432 0.43068,-2.0648 -0.19872,-0.3216 -3.25934,-1.7859 -6.8013,-3.254 -6.57706,-2.7262 -6.84735,-2.936 -5.83612,-4.5298 0.4512,-0.7112 1.92925,-0.3489 6.57932,1.6124 7.51704,3.1707 7.8127,3.2145 8.54936,1.2682 0.55031,-1.4542 0.31591,-1.6718 -2.58857,-2.4031 -3.43927,-0.8661 -4.22828,-1.5486 -3.6206,-3.1322 0.33449,-0.8717 0.84779,-0.8715 3.74705,0 3.72949,1.1224 4.54111,0.9279 4.54111,-1.0885 0,-0.8349 -0.62569,-1.5145 -1.60302,-1.7413 -2.45326,-0.5692 -11.98634,-2.505 -12.33648,-2.505 -0.17018,0 -0.30966,-0.6412 -0.30966,-1.4249 0,-1.7452 0.6678,-1.7505 8.71046,-0.069 l 6.21687,1.2996 0.44961,-1.4167 c 0.59233,-1.8662 -0.7376,-2.6392 -4.56419,-2.6527 -2.54554,-0.01 -3.03912,-0.2273 -2.84366,-1.2577 0.18069,-0.9518 1.16214,-1.3311 4.14886,-1.603 3.36554,-0.3065 3.94373,-0.5769 4.1368,-1.9347 l 0.22458,-1.5785 -7.69681,-0.2027 c -6.66901,-0.1756 -7.72869,-0.3692 -7.9356,-1.4495 -0.21569,-1.12679 0.52089,-1.24683 7.65046,-1.24683 4.33911,0 7.8849,-0.24047 7.87957,-0.53435 -0.0552,-3.03888 -0.87119,-3.68043 -4.49248,-3.53265 -2.90279,0.11848 -3.68875,-0.0924 -3.88457,-1.04189 -0.19711,-0.95579 0.53494,-1.28789 3.71441,-1.68512 3.87358,-0.48397 4.5661,-1.12091 3.33333,-3.06584 -0.49953,-0.78811 -1.80131,-0.71791 -7.48206,0.40346 -3.78251,0.74665 -7.03212,1.20272 -7.22137,1.01347 -0.1893,-0.1893 -0.34408,-0.87819 -0.34408,-1.53096 0,-0.94131 1.47434,-1.45743 7.1246,-2.49414 3.91852,-0.71899 7.12018,-1.49402 7.11484,-1.72231 -0.005,-0.22835 -0.19657,-1.11133 -0.42475,-1.96232 l -0.41501,-1.54726 -2.92772,1.03297 c -3.22697,1.13852 -4.77229,0.89383 -4.77229,-0.75567 0,-0.68635 1.17003,-1.3754 3.20608,-1.88808 3.19551,-0.80464 3.93734,-1.94559 2.617,-4.02512 -0.42928,-0.67613 -2.19176,-0.199 -7.248,1.96207 -5.05554,2.16077 -6.81862,2.63809 -7.24734,1.96205 -1.12231,-1.76976 -1.1655,-1.74254 10.27639,-6.48264 l 2.6728,-1.10727 -0.8117,-1.78147 -0.81168,-1.78144 -2.72332,1.38932 c -3.2609,1.66359 -3.9273,1.71564 -4.4522,0.3478 -0.26443,-0.6894 0.5528,-1.57685 2.41737,-2.62479 2.89713,-1.62828 3.27124,-2.34964 2.14327,-4.13254 -0.53002,-0.83777 -1.81058,-0.25958 -6.8463,3.09174 -5.33822,3.55249 -6.33357,3.98304 -7.20161,3.11498 -0.86806,-0.86804 -0.16641,-1.56681 5.07606,-5.05565 3.34585,-2.22661 6.07315,-4.28676 6.06069,-4.57809 -0.0135,-0.29133 -0.4721,-1.12293 -1.02142,-1.84803 l -0.9988,-1.31835 -2.93873,2.36165 c -2.44314,1.96335 -3.0534,2.18569 -3.61839,1.31835 -0.51171,-0.7855 0.0337,-1.6701 2.20636,-3.57986 l 2.88601,-2.53657 -1.45225,-1.31425 -1.45223,-1.31428 -1.44676,1.3093 c -0.79571,0.72012 -9.82586,13.93271 -20.06697,29.36133 l -18.62024,28.05208 -28.20204,18.7157 c -15.51113,10.2936 -28.65656,19.27 -29.21208,19.9475 -0.88605,1.0806 -0.83187,1.41 0.44124,2.6831 l 1.45131,1.4513 2.05234,-2.8998 c 2.28978,-3.2354 2.57613,-3.3767 3.81576,-1.883 0.70823,0.8533 0.4637,1.5392 -1.32028,3.7035 l -2.18948,2.6563 1.16171,1.2836 c 0.63894,0.7061 1.35362,1.2837 1.58816,1.2837 0.23454,0 2.16874,-2.7251 4.2982,-6.0559 2.12948,-3.3307 4.09288,-6.0559 4.36312,-6.0559 0.27022,0 0.82127,0.4008 1.22448,0.8906 0.53411,0.6488 -0.39422,2.5247 -3.41894,6.9089 -3.75181,5.4382 -4.03732,6.1057 -2.96141,6.9239 1.9334,1.4702 2.68215,1.1132 4.05604,-1.9335 1.5439,-3.4238 2.19611,-3.9364 3.56381,-2.8013 0.87515,0.7263 0.75494,1.3071 -0.83023,4.012 -1.01945,1.7396 -1.73443,3.2652 -1.58886,3.3903 0.14568,0.1253 0.94607,0.5815 1.77892,1.0141 l 1.51421,0.7865 2.84584,-6.8931 c 2.88897,-6.9976 3.4209,-7.7191 4.9673,-6.7377 0.64162,0.4073 0.11578,2.3754 -2.02178,7.5667 -2.30055,5.5874 -2.69483,7.1414 -1.93585,7.6305 1.83083,1.1797 3.05302,0.2235 4.00014,-3.13 0.58444,-2.0692 1.36108,-3.3787 2.00392,-3.3787 1.64178,0 1.85219,1.5761 0.66113,4.952 -1.24193,3.5199 -1.24831,3.4975 1.07204,3.7602 l 1.70896,0.1937 1.41097,-7.3027 c 1.10616,-5.7252 1.66375,-7.3027 2.58117,-7.3027 0.64359,0 1.34514,0.175 1.55899,0.3888 0.21381,0.2138 -0.31669,3.7405 -1.17894,7.837 l -1.56772,7.4483 h 1.57082 c 1.66585,0 2.42202,-1.601 2.43972,-5.1654 0.008,-1.481 0.35751,-1.9592 1.43464,-1.9592 1.25221,0 1.42493,0.4749 1.42493,3.9185 v 3.9185 h 1.78115 1.78112 z m -46.37752,-16.3144 c 0.88304,-0.94 9.83574,-14.0047 19.8949,-29.0327 l 18.28938,-27.32363 27.58282,-18.52391 c 15.17057,-10.18814 28.40349,-19.30861 29.40649,-20.26766 l 1.82364,-1.74375 -1.42414,-1.42414 -1.42415,-1.42417 -2.3739,2.74623 c -1.8685,2.16153 -2.63069,2.60252 -3.57986,2.07135 -1.08122,-0.60509 -0.98797,-0.92992 0.90167,-3.14062 2.50847,-2.93469 2.6175,-3.62186 0.75874,-4.78265 -1.28466,-0.80231 -1.72597,-0.39974 -5.08432,4.6377 -4.69407,7.04096 -4.63736,6.98423 -5.91819,5.92121 -0.92626,-0.7687 -0.54658,-1.63582 2.81964,-6.43978 2.1395,-3.05328 3.89,-5.89885 3.89,-6.32347 0,-0.75045 -2.76371,-2.59899 -3.17952,-2.12669 -0.11417,0.1298 -0.89475,1.5984 -1.73459,3.26378 -1.60044,3.17363 -1.94191,3.40176 -3.55907,2.37773 -0.8152,-0.5162 -0.66503,-1.21411 0.84119,-3.90899 l 1.83355,-3.28055 -1.45201,-0.7771 c -1.88151,-1.00696 -2.12346,-0.6984 -5.05737,6.44941 -2.52314,6.1471 -3.06325,6.83739 -4.59107,5.86781 -0.64381,-0.40857 -0.1446,-2.29533 1.92928,-7.29112 2.56264,-6.17325 2.69798,-6.81557 1.60984,-7.64007 -1.77351,-1.34382 -2.44319,-0.7924 -3.51917,2.89765 -0.60271,2.06704 -1.38442,3.34596 -2.04511,3.34596 -1.63898,0 -1.88044,-1.55237 -0.74294,-4.77638 1.1382,-3.22595 0.94241,-3.77312 -1.35001,-3.77312 -1.3925,0 -1.67072,0.69541 -2.85033,7.1246 l -1.30725,7.12457 h -1.67543 c -1.37274,0 -1.60825,-0.28963 -1.30349,-1.60302 1.00742,-4.34161 2.50502,-12.14273 2.50502,-13.04895 0,-0.56214 -0.60382,-1.02209 -1.34183,-1.02209 -1.46677,0 -2.19518,1.81933 -2.21075,5.52154 -0.0108,2.49592 -0.0431,2.53135 -1.7326,1.88302 -0.83486,-0.32036 -1.12694,-1.42829 -1.12694,-4.27475 v -3.84229 h -1.78115 -1.78115 v 7.48082 7.4808 h -1.42492 -1.4249 v -7.4808 c 0,-7.76752 -0.18392,-8.1857 -3.10706,-7.06398 -0.85275,0.32722 -0.99708,1.16941 -0.6715,3.9185 0.37756,3.18784 0.28412,3.50171 -1.04255,3.50171 -1.20848,0 -1.54098,-0.60827 -1.94724,-3.5623 -0.43353,-3.152 -0.68738,-3.56227 -2.20423,-3.56227 -2.04946,0 -2.13665,1.05833 -0.64562,7.83702 1.40201,6.37393 1.3564,7.83704 -0.24423,7.83704 -1.09504,0 -1.5265,-1.13411 -2.59886,-6.83111 -1.26968,-6.74522 -2.0299,-8.02436 -4.26045,-7.16841 -0.92041,0.35318 -0.91796,0.7701 0.0188,3.42868 1.16877,3.31263 0.94177,4.87117 -0.70946,4.87117 -0.66072,0 -1.44242,-1.27892 -2.04514,-3.34596 -1.07972,-3.70289 -1.73476,-4.2339 -3.56866,-2.89294 l -1.23748,0.90488 2.87212,6.71987 c 2.17308,5.0843 2.65471,6.85777 1.97877,7.28641 -1.55523,0.98624 -2.084,0.3158 -4.61587,-5.85249 -2.95244,-7.19302 -3.1677,-7.46073 -5.14709,-6.4014 l -1.54176,0.82514 1.90208,3.24565 c 1.53455,2.61849 1.71442,3.36455 0.93094,3.86096 -1.62233,1.02782 -1.99832,0.7607 -3.61599,-2.56897 -1.71828,-3.53672 -1.85792,-3.62165 -3.71826,-2.26132 l -1.29202,0.94472 4.13088,6.20731 c 3.67868,5.52777 4.01347,6.32472 3.05824,7.27994 -0.9552,0.95521 -1.53603,0.37295 -5.30548,-5.31891 l -4.23282,-6.39158 -1.6264,1.22679 -1.62639,1.2268 2.17569,2.73772 c 2.46433,3.10098 2.60936,3.64785 1.11889,4.21979 -0.67114,0.25743 -1.8909,-0.63248 -3.3427,-2.43905 l -2.28596,-2.84457 -1.44757,1.44757 -1.44757,1.44757 5.15592,5.19056 c 4.07182,4.09915 4.9722,5.37428 4.28215,6.0643 -0.69002,0.69004 -1.96514,-0.21031 -6.0643,-4.28216 l -5.19055,-5.15592 -1.44757,1.44757 -1.44757,1.44757 2.84457,2.28596 c 1.80657,1.4518 2.69658,2.67156 2.43904,3.3427 -0.57218,1.49106 -1.11865,1.34557 -4.22832,-1.12567 l -2.74629,-2.18248 -0.91397,1.24995 c -0.50268,0.68746 -0.91398,1.46884 -0.91398,1.73642 0,0.26766 2.56485,2.17033 5.69965,4.22838 5.26016,3.4534 6.62092,5.04622 5.1092,5.98052 -0.32477,0.20061 -3.20187,-1.3834 -6.39356,-3.52026 -3.19167,-2.13684 -6.12074,-3.88516 -6.50901,-3.88516 -0.70375,0 -2.50873,2.78501 -2.06063,3.1795 0.12979,0.11417 1.59839,0.89477 3.26378,1.73459 3.19983,1.61366 3.53182,2.13409 2.20671,3.45919 -0.62,0.62001 -1.56874,0.38318 -3.87185,-0.96654 l -3.05063,-1.7878 -0.82514,1.54177 c -1.03191,1.92817 -0.86451,2.06302 6.07526,4.89316 6.56071,2.67558 7.13806,3.09225 6.30783,4.55264 -0.51652,0.90854 -1.62594,0.6454 -7.36156,-1.74603 l -6.75337,-2.81579 -0.90555,1.2384 c -1.36762,1.8703 -1.17328,2.13083 2.31887,3.10857 3.4862,0.97607 4.24079,1.64185 3.63885,3.21051 -0.33452,0.8717 -0.84781,0.87157 -3.74707,-9.9e-4 -3.7295,-1.1224 -4.54112,-0.92785 -4.54112,1.08857 0,0.83481 0.62572,1.51449 1.60305,1.74124 2.45324,0.56925 11.98631,2.50502 12.33648,2.50502 0.17018,0 0.30964,0.64122 0.30964,1.42492 0,1.74512 -0.66781,1.75043 -8.71047,0.0692 l -6.21684,-1.29958 -0.44964,1.4166 c -0.59017,1.85954 0.73585,2.63914 4.51195,2.65274 3.23831,0.0108 3.25266,0.0215 2.5955,1.73379 -0.32036,0.83486 -1.42829,1.12697 -4.27475,1.12697 h -3.84229 v 1.75702 1.75705 l 7.65049,0.20222 c 6.62509,0.17503 7.68248,0.36932 7.88926,1.44902 0.21569,1.1267 -0.52086,1.2468 -7.65047,1.2468 -8.20964,0 -8.60176,0.1643 -7.4656,3.1249 0.33304,0.8679 1.11016,1.01 3.63255,0.6643 2.35096,-0.3223 3.37765,-0.1732 3.84016,0.5572 1.08262,1.7099 0.76383,1.9494 -3.26539,2.4528 -3.83435,0.4791 -4.52227,1.1195 -3.29025,3.0634 0.50389,0.795 1.61665,0.757 6.57931,-0.2251 3.28508,-0.65 6.53394,-1.3427 7.21968,-1.5392 0.94184,-0.27 1.2468,0.064 1.2468,1.3629 v 1.7204 l -7.18554,1.2621 -7.18553,1.2622 0.40744,1.5184 c 0.22404,0.8351 0.41186,1.7275 0.41719,1.983 0.005,0.2555 1.48974,0.019 3.29862,-0.5252 3.48265,-1.0481 4.54815,-0.8565 4.54815,0.8178 0,0.618 -1.28127,1.3721 -3.20605,1.8869 -3.17185,0.8483 -3.89389,1.9378 -2.61704,3.9489 0.42928,0.6761 2.19177,0.199 7.24801,-1.962 5.05554,-2.1608 6.81862,-2.6381 7.24733,-1.9621 1.12232,1.7698 1.16551,1.7425 -10.27635,6.4826 l -2.67281,1.1073 0.82681,1.8147 0.82681,1.8146 3.21696,-1.798 c 2.48482,-1.3887 3.34838,-1.5909 3.79436,-0.8882 0.98517,1.5525 0.69685,1.9496 -2.56647,3.5351 -2.83347,1.3766 -3.085,1.6933 -2.39711,3.0186 0.4227,0.8144 0.88268,1.6116 1.02214,1.7715 0.13948,0.1599 2.95147,-1.5608 6.24888,-3.8237 5.40315,-3.7081 7.55369,-4.4157 7.55369,-2.4856 0,0.3662 -2.71448,2.4723 -6.03217,4.6801 -5.16107,3.4347 -5.93217,4.2012 -5.3396,5.3084 1.15686,2.1617 1.82994,2.1527 4.61651,-0.062 3.03859,-2.4147 3.58826,-2.5562 4.1585,-1.0702 0.25743,0.6706 -0.62668,1.8863 -2.41884,3.3265 l -2.82435,2.2697 1.18058,1.3045 c 1.5199,1.6795 1.81381,1.6477 3.74177,-0.4045 z"
       id="path6" /></g></svg>
